<svg width="10" height="16" viewBox="0 0 10 16" fill="none" xmlns="http://www.w3.org/2000/svg">
<path d="M8.5 5.33325C8.5 3.40026 6.933 1.83325 5 1.83325C3.067 1.83325 1.5 3.40026 1.5 5.33325C1.5 7.26625 3.067 8.83325 5 8.83325C6.933 8.83325 8.5 7.26625 8.5 5.33325ZM2.00911 14.3183L2.0013 14.3313L2.01432 14.3254L2.00911 14.3183ZM2.01432 14.3254L2.0013 14.3313L2.00911 14.3183L2.01432 14.3254ZM6.95117 9.38859C6.36085 9.67314 5.6992 9.83325 5 9.83325C4.30059 9.83325 3.63864 9.6733 3.04818 9.38859L2.23893 13.9446L4.30339 12.399L4.30404 12.3984L4.38151 12.3456C4.56696 12.229 4.7823 12.1666 5.0026 12.1666C5.22278 12.1666 5.43769 12.2291 5.62305 12.3456L5.70052 12.3984L5.70117 12.399L7.76107 13.9452L6.95117 9.38859ZM9.5 5.33325C9.5 6.73074 8.8628 7.97923 7.86328 8.80461L8.82031 14.19L8.82096 14.1939L8.83268 14.3196C8.83467 14.4458 8.80799 14.5715 8.75391 14.6868C8.68181 14.8404 8.5641 14.9681 8.41732 15.0533C8.27055 15.1384 8.1014 15.177 7.93229 15.1633C7.76991 15.1502 7.61586 15.0889 7.48763 14.9888V14.9902L5.10091 13.1991C5.07244 13.1783 5.0379 13.1666 5.0026 13.1666C4.96665 13.1666 4.93115 13.1783 4.90234 13.1998L2.51237 14.9902L2.51107 14.9888C2.3832 15.0881 2.22999 15.1496 2.06836 15.1627C1.89955 15.1763 1.73055 15.1381 1.58398 15.0533C1.43732 14.9684 1.31966 14.8407 1.2474 14.6874C1.17516 14.5341 1.15188 14.3624 1.17969 14.1952L1.18034 14.19L2.13607 8.80461C1.13677 7.97923 0.5 6.73056 0.5 5.33325C0.5 2.84797 2.51472 0.833252 5 0.833252C7.48528 0.833252 9.5 2.84797 9.5 5.33325Z" fill="url(#paint0_linear_108_311)"/>
<defs>
<linearGradient id="paint0_linear_108_311" x1="0.5" y1="1.40741" x2="12.9292" y2="6.11807" gradientUnits="userSpaceOnUse">
<stop stop-color="#C56B1A"/>
<stop offset="0.5625" stop-color="#D0A1AA"/>
</linearGradient>
</defs>
</svg>
