<svg width="16" height="12" viewBox="0 0 16 12" fill="none" xmlns="http://www.w3.org/2000/svg">
<path d="M11.5016 7.09159L8.76135 8.33443L8.762 8.33508C8.52328 8.44392 8.26396 8.50043 8.00159 8.50045C7.77187 8.50045 7.54428 8.45728 7.33101 8.37349L7.24052 8.33508L4.50159 7.08573V8.66646C4.50159 8.9116 4.70858 9.28982 5.39677 9.63391C6.06155 9.96623 6.99846 10.1665 8.00159 10.1665C9.00478 10.1664 9.94165 9.96629 10.6064 9.63391C11.2946 9.28982 11.5016 8.9116 11.5016 8.66646V7.09159ZM14.1683 8.66646V5.88131L12.5016 6.63782V8.66646C12.5016 9.4821 11.8656 10.1217 11.0537 10.5278C10.2182 10.9455 9.12001 11.1664 8.00159 11.1665C6.88311 11.1665 5.785 10.9455 4.9495 10.5278C4.13741 10.1217 3.50159 9.48219 3.50159 8.66646V6.62935L1.53414 5.73222C1.32646 5.64126 1.14975 5.4923 1.02568 5.30253C0.901601 5.11274 0.835571 4.89061 0.835571 4.66386C0.835605 4.43723 0.901697 4.21555 1.02568 4.02584C1.14845 3.83803 1.32274 3.68933 1.52763 3.5981L7.24052 0.999145C7.47937 0.890198 7.73906 0.83313 8.00159 0.83313C8.26398 0.833149 8.52326 0.889631 8.762 0.998494L14.4762 3.60071C14.6807 3.68915 14.8548 3.83444 14.9795 4.01933C15.107 4.20859 15.1763 4.43106 15.1787 4.6593C15.1793 4.71526 15.1756 4.77094 15.1683 4.82597V8.66646C15.1683 8.94255 14.9443 9.16637 14.6683 9.16646C14.3921 9.16646 14.1683 8.9426 14.1683 8.66646ZM1.83557 4.66386C1.83557 4.69622 1.84522 4.72791 1.86292 4.755C1.87184 4.76865 1.88248 4.78106 1.89482 4.79146L1.93518 4.81685L1.94234 4.81946L7.65588 7.42493L7.73857 7.45748C7.82319 7.48562 7.91203 7.50045 8.00159 7.50045C8.12087 7.50043 8.23876 7.47443 8.34729 7.42493L14.0752 4.82597L14.0797 4.82401L14.1207 4.79797C14.1329 4.78752 14.1438 4.77516 14.1526 4.76151C14.1594 4.75095 14.164 4.73936 14.1683 4.72766V4.66646C14.1683 4.65088 14.1688 4.63546 14.1702 4.62024C14.1655 4.60562 14.1593 4.59147 14.1507 4.57857C14.1324 4.55153 14.1066 4.52992 14.0765 4.51737C14.0715 4.51529 14.0664 4.5131 14.0615 4.51086L8.34729 1.90865C8.23879 1.85918 8.12083 1.83315 8.00159 1.83313C7.88238 1.83313 7.76436 1.85858 7.65588 1.908L7.65523 1.90865L1.94169 4.50826L1.93518 4.51151C1.90566 4.52449 1.88059 4.54575 1.86292 4.57271C1.84522 4.59978 1.83561 4.63153 1.83557 4.66386Z" fill="url(#paint0_linear_108_636)"/>
<defs>
<linearGradient id="paint0_linear_108_636" x1="0.835571" y1="1.24708" x2="14.1464" y2="12.3987" gradientUnits="userSpaceOnUse">
<stop stop-color="#C56B1A"/>
<stop offset="0.5625" stop-color="#D0A1AA"/>
</linearGradient>
</defs>
</svg>
