<svg width="14" height="16" viewBox="0 0 14 16" fill="none" xmlns="http://www.w3.org/2000/svg">
<path d="M12.5 4.50004H1.5V13.3334C1.5 13.5544 1.58786 13.7663 1.74414 13.9226C1.90042 14.0788 2.11232 14.1667 2.33333 14.1667H11.6667C11.8877 14.1667 12.0996 14.0788 12.2559 13.9226C12.4121 13.7663 12.5 13.5544 12.5 13.3334V4.50004ZM3.83333 6.66671C3.83333 6.39056 4.05719 6.16671 4.33333 6.16671C4.60948 6.16671 4.83333 6.39056 4.83333 6.66671C4.83333 7.24134 5.06177 7.79228 5.4681 8.19861C5.87443 8.60494 6.42536 8.83337 7 8.83337C7.57464 8.83337 8.12557 8.60494 8.5319 8.19861C8.93823 7.79228 9.16667 7.24134 9.16667 6.66671C9.16667 6.39056 9.39052 6.16671 9.66667 6.16671C9.94281 6.16671 10.1667 6.39056 10.1667 6.66671C10.1667 7.50656 9.8328 8.31177 9.23893 8.90564C8.64507 9.49951 7.83985 9.83337 7 9.83337C6.16015 9.83337 5.35493 9.49951 4.76107 8.90564C4.1672 8.31177 3.83333 7.50656 3.83333 6.66671ZM2 3.50004H12L10.75 1.83337H3.25L2 3.50004ZM13.5 13.3334C13.5 13.8196 13.3067 14.2858 12.9629 14.6296C12.6191 14.9734 12.1529 15.1667 11.6667 15.1667H2.33333C1.8471 15.1667 1.38093 14.9734 1.03711 14.6296C0.693293 14.2858 0.5 13.8196 0.5 13.3334V4.00004C0.5 3.89186 0.535349 3.78646 0.60026 3.69991L2.60026 1.03324L2.63802 0.988322C2.73178 0.889949 2.86241 0.833374 3 0.833374H11C11.1573 0.833374 11.3053 0.907468 11.3997 1.03324L13.3997 3.69991C13.4647 3.78646 13.5 3.89186 13.5 4.00004V13.3334Z" fill="url(#paint0_linear_108_624)"/>
<defs>
<linearGradient id="paint0_linear_108_624" x1="0.5" y1="1.40756" x2="16.2979" y2="10.0557" gradientUnits="userSpaceOnUse">
<stop stop-color="#C56B1A"/>
<stop offset="0.5625" stop-color="#D0A1AA"/>
</linearGradient>
</defs>
</svg>
