<svg width="16" height="16" viewBox="0 0 16 16" fill="none" xmlns="http://www.w3.org/2000/svg">
<path d="M14.1667 8.00004C14.1667 4.59428 11.4058 1.83337 8.00004 1.83337C4.59428 1.83337 1.83337 4.59428 1.83337 8.00004C1.83337 11.4058 4.59428 14.1667 8.00004 14.1667C11.4058 14.1667 14.1667 11.4058 14.1667 8.00004ZM11.5 8.00004C11.5 6.06704 9.93304 4.50004 8.00004 4.50004C6.06704 4.50004 4.50004 6.06704 4.50004 8.00004C4.50004 9.93304 6.06704 11.5 8.00004 11.5C9.93304 11.5 11.5 9.93304 11.5 8.00004ZM8.83337 8.00004C8.83337 7.5398 8.46028 7.16671 8.00004 7.16671C7.5398 7.16671 7.16671 7.5398 7.16671 8.00004C7.16671 8.46028 7.5398 8.83337 8.00004 8.83337C8.46028 8.83337 8.83337 8.46028 8.83337 8.00004ZM9.83337 8.00004C9.83337 9.01256 9.01256 9.83337 8.00004 9.83337C6.98752 9.83337 6.16671 9.01256 6.16671 8.00004C6.16671 6.98752 6.98752 6.16671 8.00004 6.16671C9.01256 6.16671 9.83337 6.98752 9.83337 8.00004ZM12.5 8.00004C12.5 10.4853 10.4853 12.5 8.00004 12.5C5.51476 12.5 3.50004 10.4853 3.50004 8.00004C3.50004 5.51476 5.51476 3.50004 8.00004 3.50004C10.4853 3.50004 12.5 5.51476 12.5 8.00004ZM15.1667 8.00004C15.1667 11.9581 11.9581 15.1667 8.00004 15.1667C4.042 15.1667 0.833374 11.9581 0.833374 8.00004C0.833374 4.042 4.042 0.833374 8.00004 0.833374C11.9581 0.833374 15.1667 4.042 15.1667 8.00004Z" fill="url(#paint0_linear_108_616)"/>
<defs>
<linearGradient id="paint0_linear_108_616" x1="0.833374" y1="1.40756" x2="17.4265" y2="11.4226" gradientUnits="userSpaceOnUse">
<stop stop-color="#C56B1A"/>
<stop offset="0.5625" stop-color="#D0A1AA"/>
</linearGradient>
</defs>
</svg>
