<svg width="16" height="15" viewBox="0 0 16 15" fill="none" xmlns="http://www.w3.org/2000/svg">
<path d="M14.1667 9.16581C14.1667 8.92287 14.0703 8.68982 13.8985 8.51803C13.7267 8.34622 13.4937 8.2498 13.2507 8.2498C13.0381 8.2498 12.833 8.32328 12.67 8.45683L12.6029 8.51803L9.92973 11.1925C9.85537 11.2668 9.79555 11.3544 9.75395 11.4503L9.71879 11.5486L9.24548 13.1697L10.8672 12.6971L10.9655 12.6613C11.0613 12.6197 11.1491 12.5604 11.2233 12.4861L13.8985 9.8136L13.959 9.74654C14.0927 9.5835 14.1667 9.3785 14.1667 9.16581ZM9.50004 4.41646C9.50004 2.85166 8.23151 1.58313 6.66671 1.58313C5.1019 1.58313 3.83337 2.85166 3.83337 4.41646C3.83337 5.97475 5.09136 7.23864 6.64718 7.24915C6.65781 7.24911 6.66844 7.24912 6.67908 7.24915C8.23819 7.24248 9.50004 5.97714 9.50004 4.41646ZM15.1667 9.16581C15.1667 9.61037 15.0124 10.0391 14.7331 10.38L14.6055 10.5206L11.9304 13.1932C11.7126 13.411 11.4435 13.571 11.1478 13.6573L9.23376 14.2153C9.09044 14.257 8.93827 14.2595 8.79366 14.2225C8.64903 14.1854 8.51708 14.1099 8.4115 14.0044C8.30593 13.8988 8.2305 13.7668 8.1934 13.6222C8.15632 13.4775 8.15873 13.3249 8.20056 13.1814L8.7585 11.2687C8.84488 10.973 9.00479 10.7033 9.2227 10.4855L11.8959 7.81099L12.0365 7.68339C12.3774 7.40411 12.8061 7.2498 13.2507 7.2498C13.7589 7.2498 14.2462 7.45166 14.6055 7.81099C14.9648 8.17033 15.1667 8.65765 15.1667 9.16581ZM10.5 4.41646C10.5 5.76594 9.80205 6.95149 8.74809 7.63456C8.99001 7.74053 9.10924 8.01799 9.01501 8.26803C8.91763 8.52636 8.6295 8.657 8.37113 8.55969C7.82729 8.35476 7.25246 8.25008 6.67452 8.24915C6.67192 8.24915 6.66931 8.2498 6.66671 8.2498C6.6615 8.2498 6.65629 8.24917 6.65108 8.24915C6.45948 8.24976 6.26742 8.26207 6.07621 8.2856C5.30046 8.3811 4.55947 8.66315 3.91671 9.10787C3.27389 9.55263 2.7483 10.1466 2.38546 10.839C2.02266 11.5313 1.83329 12.3015 1.83337 13.0831C1.83334 13.3592 1.60948 13.5831 1.33337 13.5831C1.05726 13.5831 0.833408 13.3593 0.833374 13.0831C0.83327 12.1397 1.06213 11.2104 1.50004 10.3748C1.93794 9.53922 2.57192 8.82237 3.3477 8.2856C3.73365 8.01856 4.1488 7.7996 4.58403 7.63326C3.53091 6.95003 2.83337 5.76529 2.83337 4.41646C2.83337 2.29937 4.54962 0.58313 6.66671 0.58313C8.7838 0.58313 10.5 2.29937 10.5 4.41646Z" fill="url(#paint0_linear_108_409)"/>
<defs>
<linearGradient id="paint0_linear_108_409" x1="0.833374" y1="1.13056" x2="16.9944" y2="11.3616" gradientUnits="userSpaceOnUse">
<stop stop-color="#C56B1A"/>
<stop offset="0.5625" stop-color="#D0A1AA"/>
</linearGradient>
</defs>
</svg>
