<svg width="14" height="14" viewBox="0 0 14 14" fill="none" xmlns="http://www.w3.org/2000/svg">
<path d="M12.5 2.33333C12.5 1.8731 12.1269 1.5 11.6667 1.5H2.33333C1.8731 1.5 1.5 1.8731 1.5 2.33333V11.6667C1.5 12.1269 1.8731 12.5 2.33333 12.5H11.6667C12.1269 12.5 12.5 12.1269 12.5 11.6667V2.33333ZM9.66667 9.16667C9.94281 9.16667 10.1667 9.39052 10.1667 9.66667C10.1667 9.94281 9.94281 10.1667 9.66667 10.1667H6.33333C6.05719 10.1667 5.83333 9.94281 5.83333 9.66667C5.83333 9.39052 6.05719 9.16667 6.33333 9.16667H9.66667ZM8.33333 6.5C8.60948 6.5 8.83333 6.72386 8.83333 7C8.83333 7.27614 8.60948 7.5 8.33333 7.5H4.33333C4.05719 7.5 3.83333 7.27614 3.83333 7C3.83333 6.72386 4.05719 6.5 4.33333 6.5H8.33333ZM9.66667 3.83333C9.94281 3.83333 10.1667 4.05719 10.1667 4.33333C10.1667 4.60948 9.94281 4.83333 9.66667 4.83333H5C4.72386 4.83333 4.5 4.60948 4.5 4.33333C4.5 4.05719 4.72386 3.83333 5 3.83333H9.66667ZM13.5 11.6667C13.5 12.6792 12.6792 13.5 11.6667 13.5H2.33333C1.32081 13.5 0.5 12.6792 0.5 11.6667V2.33333C0.5 1.32081 1.32081 0.5 2.33333 0.5H11.6667C12.6792 0.5 13.5 1.32081 13.5 2.33333V11.6667Z" fill="url(#paint0_linear_108_601)"/>
<defs>
<linearGradient id="paint0_linear_108_601" x1="0.5" y1="1.02077" x2="15.5496" y2="10.1042" gradientUnits="userSpaceOnUse">
<stop stop-color="#C56B1A"/>
<stop offset="0.5625" stop-color="#D0A1AA"/>
</linearGradient>
</defs>
</svg>
