<svg width="14" height="16" viewBox="0 0 14 16" fill="none" xmlns="http://www.w3.org/2000/svg">
<path d="M7.97979 2.66671C7.97979 2.44569 7.89193 2.2338 7.73565 2.07751C7.57938 1.92129 7.36743 1.83337 7.14646 1.83337H6.85349C6.63252 1.83337 6.42057 1.92129 6.2643 2.07751C6.10802 2.2338 6.02016 2.44569 6.02016 2.66671V2.78715C6.01983 3.10853 5.93484 3.42425 5.77406 3.70251C5.6134 3.98047 5.38204 4.21106 5.10414 4.37179L5.10479 4.37244L4.81768 4.5391L4.81638 4.53975C4.53773 4.70058 4.22145 4.7852 3.89971 4.7852C3.57799 4.78515 3.26167 4.70062 2.98305 4.53975L2.89776 4.49483C2.89289 4.49224 2.88821 4.48912 2.88344 4.48637C2.69228 4.37613 2.46511 4.34608 2.25193 4.40304C2.0654 4.45291 1.90285 4.56607 1.79099 4.72139L1.74607 4.79041L1.59958 5.04366L1.59893 5.04301C1.48872 5.23419 1.45924 5.46198 1.51625 5.67517C1.56617 5.86168 1.67926 6.02429 1.83461 6.13611L1.90362 6.18103L1.93096 6.19731L2.03057 6.26371C2.29539 6.42282 2.5164 6.64607 2.67185 6.91345C2.83256 7.18997 2.91795 7.50379 2.91989 7.82361V8.16475L2.91664 8.28585C2.89917 8.5667 2.81712 8.84039 2.6764 9.08533C2.51543 9.36542 2.283 9.59828 2.00323 9.75981L2.00258 9.75916L1.91078 9.81514L1.90362 9.8197L1.90297 9.81905C1.71229 9.92969 1.57325 10.1119 1.51625 10.3249C1.45929 10.5379 1.48895 10.7653 1.59893 10.9564L1.74607 11.2097L1.79099 11.2787C1.90285 11.434 2.0654 11.5472 2.25193 11.597C2.46511 11.654 2.69228 11.624 2.88344 11.5137L2.89776 11.5052L2.98305 11.4603C3.26167 11.2995 3.57798 11.2149 3.89971 11.2149C4.18126 11.2149 4.45867 11.2797 4.71026 11.4037L4.81638 11.4603L4.81768 11.461L5.10349 11.627L5.2057 11.6908C5.43857 11.8465 5.63334 12.0541 5.77406 12.2976C5.93484 12.5758 6.01983 12.8916 6.02016 13.2129V13.3334C6.02016 13.5544 6.10802 13.7663 6.2643 13.9226C6.42057 14.0788 6.63252 14.1667 6.85349 14.1667H7.14646C7.36743 14.1667 7.57938 14.0788 7.73565 13.9226C7.89193 13.7663 7.97979 13.5544 7.97979 13.3334V13.2129C7.98012 12.8916 8.06511 12.5758 8.22589 12.2976C8.38675 12.0193 8.61809 11.7877 8.89646 11.627L9.18227 11.461L9.18357 11.4603L9.28969 11.4037C9.54128 11.2797 9.81868 11.2149 10.1002 11.2149C10.422 11.2149 10.7383 11.2995 11.0169 11.4603L11.1022 11.5052L11.1165 11.5137C11.3077 11.624 11.5348 11.654 11.748 11.597C11.9612 11.54 12.1432 11.4006 12.2539 11.2097L12.3978 10.9545L12.4004 10.9499L12.4375 10.877C12.5164 10.7024 12.5336 10.5051 12.4837 10.3184C12.4271 10.1067 12.2891 9.92601 12.1002 9.81514L12.011 9.76762C12.0062 9.76506 12.0014 9.76252 11.9967 9.75981C11.7169 9.59828 11.4845 9.36542 11.3235 9.08533C11.1627 8.8053 11.0788 8.4877 11.0801 8.16475V7.83337C11.0791 7.5111 11.163 7.19421 11.3235 6.91475C11.4644 6.66969 11.6598 6.46063 11.8939 6.30408L11.9967 6.24027L12.0892 6.18494L12.0963 6.18038C12.2871 6.06975 12.4267 5.88821 12.4837 5.67517C12.5407 5.46191 12.5107 5.23423 12.4004 5.04301L12.2539 4.79041C12.1432 4.59949 11.9612 4.46004 11.748 4.40304C11.5348 4.34608 11.3077 4.37613 11.1165 4.48637C11.1117 4.48912 11.1071 4.49224 11.1022 4.49483L11.0163 4.5391L11.0169 4.53975C10.7383 4.70062 10.422 4.78515 10.1002 4.7852C9.7785 4.7852 9.46222 4.70058 9.18357 4.53975L9.18227 4.5391L8.89516 4.37244C8.61747 4.21173 8.38646 3.9803 8.22589 3.70251C8.06511 3.42425 7.98012 3.10853 7.97979 2.78715V2.66671ZM8.49997 8.00004C8.49997 7.17161 7.8284 6.50004 6.99997 6.50004C6.17155 6.50004 5.49997 7.17161 5.49997 8.00004C5.49997 8.82847 6.17155 9.50004 6.99997 9.50004C7.8284 9.50004 8.49997 8.82847 8.49997 8.00004ZM9.49997 8.00004C9.49997 9.38075 8.38069 10.5 6.99997 10.5C5.61926 10.5 4.49997 9.38075 4.49997 8.00004C4.49997 6.61933 5.61926 5.50004 6.99997 5.50004C8.38069 5.50004 9.49997 6.61933 9.49997 8.00004ZM8.97979 2.7865L8.98695 2.89522C9.0013 3.00314 9.03694 3.10765 9.09177 3.20251C9.14665 3.29743 9.21953 3.38035 9.30596 3.44666L9.39646 3.5072L9.39776 3.50785L9.68357 3.67387L9.78122 3.72205C9.88195 3.76374 9.99051 3.7852 10.1002 3.7852C10.2464 3.78515 10.3903 3.74697 10.5169 3.67387L10.5312 3.66541L10.6315 3.61202C11.0491 3.37619 11.5427 3.31353 12.0065 3.43754C12.4756 3.56302 12.8757 3.86952 13.1191 4.28975L13.2662 4.54301L13.3489 4.70447C13.5225 5.08841 13.559 5.52237 13.4492 5.93298C13.3244 6.39973 13.0204 6.79793 12.6035 7.04171L12.6041 7.04236L12.5039 7.10225L12.4967 7.10616C12.3695 7.17958 12.2639 7.28549 12.1907 7.4128C12.1176 7.54011 12.0795 7.68458 12.0801 7.83142V8.16866C12.0795 8.3155 12.1176 8.45997 12.1907 8.58728C12.2631 8.71329 12.3674 8.818 12.4928 8.89132L12.582 8.93884L12.597 8.94731C13.0171 9.19067 13.3237 9.5909 13.4492 10.0599C13.5742 10.5276 13.5089 11.0255 13.2682 11.4454L13.2689 11.446L13.1224 11.7058L13.1191 11.711L13.1185 11.7103C12.8751 12.1305 12.4756 12.4371 12.0065 12.5625C11.5426 12.6866 11.0492 12.6234 10.6315 12.3874L10.5312 12.3347C10.5263 12.3321 10.5217 12.329 10.5169 12.3262C10.3903 12.2531 10.2464 12.2149 10.1002 12.2149C9.95406 12.2149 9.81019 12.2532 9.68357 12.3262L9.39776 12.4922L9.39646 12.4929C9.26995 12.5659 9.16489 12.6711 9.09177 12.7976C9.01869 12.924 8.97999 13.0676 8.97979 13.2136V13.3334C8.97979 13.8196 8.7865 14.2858 8.44268 14.6296C8.09887 14.9734 7.63265 15.1667 7.14646 15.1667H6.85349C6.3673 15.1667 5.90107 14.9734 5.55726 14.6296C5.21345 14.2858 5.02016 13.8196 5.02016 13.3334V13.2136C5.01995 13.0676 4.98126 12.924 4.90818 12.7976C4.83506 12.6711 4.72999 12.5659 4.60349 12.4929L4.60219 12.4922L4.31638 12.3262L4.21872 12.278C4.118 12.2363 4.00943 12.2149 3.89971 12.2149C3.75352 12.2149 3.60965 12.2531 3.48305 12.3262C3.47824 12.329 3.47361 12.3321 3.46872 12.3347L3.36846 12.3881L3.36781 12.3874C2.95024 12.6231 2.45714 12.6865 1.99346 12.5625C1.58295 12.4527 1.22522 12.2046 0.979139 11.8627L0.880832 11.7103L0.733696 11.4571C0.491055 11.0364 0.425346 10.5362 0.550754 10.0671C0.67554 9.60043 0.979015 9.20151 1.39581 8.95772L1.49607 8.89783L1.50323 8.89392L1.59437 8.83272C1.68115 8.76604 1.75433 8.68278 1.80922 8.58728C1.88239 8.45997 1.92048 8.3155 1.91989 8.16866V7.82947L1.91208 7.72139C1.89735 7.6141 1.86202 7.51029 1.80726 7.41606C1.73418 7.29035 1.62915 7.18603 1.50323 7.11332C1.49393 7.10795 1.48482 7.1017 1.47588 7.09574L1.37627 7.02934C0.969997 6.78458 0.67349 6.39198 0.550754 5.93298C0.425346 5.46385 0.491055 4.96431 0.733696 4.54366L0.880832 4.28975L0.979139 4.13741C1.22522 3.79549 1.58295 3.54734 1.99346 3.43754C2.45704 3.31358 2.9503 3.37642 3.36781 3.61202L3.46872 3.66541L3.48305 3.67387C3.60965 3.74697 3.75352 3.78515 3.89971 3.7852C4.04589 3.7852 4.18976 3.74691 4.31638 3.67387L4.60219 3.50785L4.60349 3.5072L4.69398 3.44666C4.78042 3.38035 4.8533 3.29743 4.90818 3.20251C4.96301 3.10766 4.99864 3.00314 5.01299 2.89522L5.02016 2.7865V2.66671C5.02016 2.18048 5.21345 1.7143 5.55726 1.37048C5.90107 1.02672 6.3673 0.833374 6.85349 0.833374H7.14646C7.63265 0.833374 8.09887 1.02672 8.44268 1.37048C8.7865 1.7143 8.97979 2.18048 8.97979 2.66671V2.7865Z" fill="url(#paint0_linear_108_46)"/>
<defs>
<linearGradient id="paint0_linear_108_46" x1="0.488525" y1="1.40756" x2="16.3014" y2="10.0792" gradientUnits="userSpaceOnUse">
<stop stop-color="#C56B1A"/>
<stop offset="0.5625" stop-color="#D0A1AA"/>
</linearGradient>
</defs>
</svg>
