<svg width="18" height="18" viewBox="0 0 18 18" fill="none" xmlns="http://www.w3.org/2000/svg">
<path d="M16.4 9.00002C16.4 4.91312 13.0869 1.60002 9.00002 1.60002C4.91312 1.60002 1.60002 4.91312 1.60002 9.00002C1.60002 13.0869 4.91312 16.4 9.00002 16.4C13.0869 16.4 16.4 13.0869 16.4 9.00002ZM9.00784 11.6L9.06956 11.6031C9.37202 11.634 9.60784 11.8894 9.60784 12.2C9.60784 12.5106 9.37202 12.7661 9.06956 12.7969L9.00784 12.8H9.00002C8.66865 12.8 8.40002 12.5314 8.40002 12.2C8.40002 11.8687 8.66865 11.6 9.00002 11.6H9.00784ZM8.40002 9.00002V5.80002C8.40002 5.46865 8.66865 5.20002 9.00002 5.20002C9.3314 5.20002 9.60002 5.46865 9.60002 5.80002V9.00002C9.60002 9.3314 9.3314 9.60002 9.00002 9.60002C8.66865 9.60002 8.40002 9.3314 8.40002 9.00002ZM17.6 9.00002C17.6 13.7497 13.7497 17.6 9.00002 17.6C4.25038 17.6 0.400024 13.7497 0.400024 9.00002C0.400024 4.25038 4.25038 0.400024 9.00002 0.400024C13.7497 0.400024 17.6 4.25038 17.6 9.00002Z" fill="#FF8904"/>
</svg>
